<svg xmlns="http://www.w3.org/2000/svg" data-name="Layer 1" viewBox="0 0 3202.42 1773.21" id="business-decision-making"><path fill="#56b1da" d="M3295.59 1884a607.22 607.22 0 0 0 27.88-182.41c0-277.33-185.83-511.24-439.75-584a369.43 369.43 0 0 0 27.93-141.33c0-204.66-165.91-370.57-370.57-370.57a370.82 370.82 0 0 0-101.45 14.06c-137-220.43-381.33-367.22-660-367.22-360.32 0-663.29 245.43-751 578.22-417.6 12.88-752.19 355.41-752.19 776.13a774.63 774.63 0 0 0 51 277.17Z" transform="translate(-121.06 -110.79)"></path><path fill="#458fb0" d="M2128.8 1177.34h630.63v9.38H2128.8z" transform="rotate(-75.61 2312.38 1204.608)"></path><path fill="#458fb0" d="M2551.91 819.32c-14.21 55.39-39.58 96.74-39.58 96.74s-2.33-48.46 11.87-103.85 39.58-96.74 39.58-96.74 2.34 48.46-11.87 103.85ZM2590.48 877.08c-41.57 39.27-85.09 60.7-85.09 60.7s23.88-42.23 65.45-81.49 85.09-60.7 85.09-60.7-23.88 42.23-65.45 81.49ZM2598.21 951.08c-53.6 19.92-102 22.66-102 22.66s38.47-29.55 92.07-49.47 102-22.66 102-22.66-38.47 29.55-92.07 49.47Z" transform="translate(-121.06 -110.79)"></path><path fill="#458fb0" d="M2420.2 905.43c37.4 43.26 78.53 69 78.53 69s-19.5-44.42-56.89-87.68-78.53-69-78.53-69 19.5 44.42 56.89 87.68ZM2582.33 1013c-53.6 19.92-102 22.66-102 22.66s38.47-29.55 92.07-49.47 102-22.66 102-22.66-38.46 29.52-92.07 49.47Z" transform="translate(-121.06 -110.79)"></path><path fill="#458fb0" d="M2404.33 967.32c37.4 43.26 78.53 69 78.53 69s-19.5-44.42-56.89-87.68-78.53-69-78.53-69 19.49 44.42 56.89 87.68ZM2566.46 1074.86c-53.6 19.92-102 22.66-102 22.66s38.44-29.52 92.04-49.52 102-22.66 102-22.66-38.44 29.6-92.04 49.52Z" transform="translate(-121.06 -110.79)"></path><path fill="#458fb0" d="M2388.46 1029.21c37.4 43.26 78.53 69 78.53 69s-19.5-44.42-56.89-87.68-78.53-69-78.53-69 19.49 44.42 56.89 87.68ZM2550.59 1136.75c-53.6 19.92-102 22.66-102 22.66s38.47-29.55 92.07-49.47 102-22.66 102-22.66-38.47 29.55-92.07 49.47Z" transform="translate(-121.06 -110.79)"></path><path fill="#458fb0" d="M2372.58 1091.09c37.4 43.26 78.53 69 78.53 69s-19.5-44.42-56.89-87.68-78.53-69-78.53-69 19.5 44.43 56.89 87.68ZM2534.72 1198.64c-53.6 19.92-102 22.66-102 22.66s38.47-29.55 92.07-49.47 102-22.66 102-22.66-38.47 29.55-92.07 49.47Z" transform="translate(-121.06 -110.79)"></path><path fill="#458fb0" d="M2356.71 1153c37.4 43.26 78.53 69 78.53 69s-19.5-44.42-56.89-87.68-78.53-69-78.53-69 19.49 44.41 56.89 87.68ZM2518.84 1260.53c-53.6 19.92-102 22.66-102 22.66s38.47-29.55 92.07-49.47 102-22.66 102-22.66-38.47 29.55-92.07 49.47Z" transform="translate(-121.06 -110.79)"></path><path fill="#458fb0" d="M2340.84 1214.87c37.4 43.26 78.53 69 78.53 69s-19.5-44.42-56.89-87.68-78.53-69-78.53-69 19.49 44.42 56.89 87.68ZM2503 1322.42c-53.6 19.92-102 22.66-102 22.66s38.47-29.55 92.07-49.47 102-22.66 102-22.66-38.5 29.55-92.07 49.47Z" transform="translate(-121.06 -110.79)"></path><path fill="#458fb0" d="M2325 1276.76c37.4 43.26 78.53 69 78.53 69s-19.5-44.42-56.89-87.68-78.53-69-78.53-69 19.46 44.42 56.89 87.68ZM2487.1 1384.3c-53.6 19.92-102 22.66-102 22.66s38.47-29.55 92.07-49.47 102-22.66 102-22.66-38.47 29.56-92.07 49.47Z" transform="translate(-121.06 -110.79)"></path><path fill="#458fb0" d="M2309.09 1338.65c37.4 43.26 78.53 69 78.53 69s-19.5-44.42-56.89-87.68-78.53-69-78.53-69 19.49 44.42 56.89 87.68ZM2462.59 844.28c17.54 54.43 45.37 94.16 45.37 94.16s-.61-48.51-18.15-102.93-45.37-94.16-45.37-94.16.56 48.5 18.15 102.93Z" transform="translate(-121.06 -110.79)"></path><path fill="#00c5c9" d="M871.08 1180.74c115.84 81 264 69.16 264 69.16L715.55 956.52s39.69 143.21 155.53 224.22Z" transform="translate(-121.06 -110.79)"></path><path fill="#00e1e6" d="m715.55 956.52 419.51 293.39s-39.69-143.21-155.53-224.23-263.98-69.16-263.98-69.16Z" transform="translate(-121.06 -110.79)"></path><path fill="#00c5c9" d="M970.39 1031.46c47.06 133.3 174.43 209.86 174.43 209.86L974.39 758.6s-51.07 139.56-4 272.86Z" transform="translate(-121.06 -110.79)"></path><path fill="#00e1e6" d="m974.39 758.6 170.43 482.72s51.06-139.56 4-272.86S974.39 758.6 974.39 758.6Z" transform="translate(-121.06 -110.79)"></path><path fill="#7cc8eb" d="M693.19 1301c-177.2 0-326.63 118.84-373 281.17h745.92C1019.82 1419.88 870.39 1301 693.19 1301ZM1710.68 1301c-177.2 0-326.63 118.84-373 281.17h745.92c-46.29-162.29-195.72-281.17-372.92-281.17Z" transform="translate(-121.06 -110.79)"></path><path fill="#7cc8eb" d="M1225.92 1180.59c-253.11 0-466.56 169.75-532.73 401.62h1065.47c-66.18-231.87-279.66-401.62-532.74-401.62Z" transform="translate(-121.06 -110.79)"></path><path fill="#30637a" d="M2987 780.62s23.69-39 10.64-92.95 31.25-71.17 50-51.57 21.3 78.15-60.64 144.52ZM2942.88 806s-6.6-45.12-51.09-78.37-21.32-74.75 5.64-71.63 66.26 46.63 45.45 150ZM2946.91 811.25s45.3 5.26 79.86 48.73 75.35 19.09 71.43-7.77-48.56-64.84-151.29-40.96ZM2876.69 877.08s45.3 5.26 79.86 48.73S3031.9 944.9 3028 918s-48.57-64.8-151.31-40.92ZM2829.06 952.35s45.3 5.26 79.86 48.73 75.35 19.09 71.43-7.77-48.55-64.84-151.29-40.96ZM2774.13 1048s45.3 5.26 79.86 48.73 75.35 19.09 71.43-7.77-48.56-64.8-151.29-40.96ZM2877.42 876.62s-6.6-45.12-51.09-78.37-21.33-74.75 5.67-71.63 66.23 46.6 45.42 150ZM2820.66 958.62s-6.6-45.12-51.09-78.37-21.32-74.75 5.64-71.63 66.26 46.6 45.45 150ZM2771.26 1045.66s-6.6-45.12-51.09-78.37-21.32-74.75 5.64-71.63 66.26 46.6 45.45 150Z" transform="translate(-121.06 -110.79)"></path><path fill="#30637a" d="M2644.89 1455.92a4.71 4.71 0 0 0 4.47-4.13c.14-1.15 14.94-117 65.73-258.75 46.79-130.58 134.56-310.52 287-426.2a4.71 4.71 0 0 0-5.7-7.51c-154.38 117.12-243.07 298.88-290.29 430.74-51.1 142.7-66 259.39-66.14 260.55a4.71 4.71 0 0 0 4.1 5.26 4.89 4.89 0 0 0 .83.04ZM3139.77 1164.7s30.43-20 39.5-63.42 46.91-40.65 53.75-20.08-11.38 63.68-93.25 83.5ZM3099.27 1167.95s10.68-34.82-10-74 10.2-61.23 28.59-49.75 31.82 56.26-18.59 123.75ZM3100.39 1173.09s30.88 19.3 40.94 62.5 47.83 39.57 54.2 18.85-12.84-63.44-95.14-81.35ZM3027.19 1196.55s30.88 19.3 40.94 62.5 47.83 39.57 54.2 18.85-12.83-63.41-95.14-81.35ZM2967.06 1234.56s30.88 19.3 40.94 62.5 47.83 39.57 54.2 18.85-12.84-63.41-95.14-81.35ZM2894.66 1284.8s30.88 19.3 40.94 62.5 47.83 39.57 54.2 18.85-12.8-63.41-95.14-81.35ZM3027.87 1196.47s10.68-34.82-10-74 10.2-61.23 28.59-49.75 31.83 56.28-18.59 123.75ZM2958.84 1236.21s10.68-34.82-10-74 10.2-61.23 28.59-49.75 31.83 56.26-18.59 123.75ZM2893.41 1282.1s10.68-34.82-10-74 10.2-61.23 28.59-49.75 31.82 56.27-18.59 123.75Z" transform="translate(-121.06 -110.79)"></path><path fill="#30637a" d="M2662.87 1535.13a3.77 3.77 0 0 0 3.55-1.72c.5-.78 50.83-79.3 136-164.19 78.46-78.2 203.39-178 353-209.25a3.76 3.76 0 1 0-1.54-7.37C3002.41 1184.24 2876.19 1285 2797 1364c-85.72 85.47-136.42 164.57-136.92 165.36a3.77 3.77 0 0 0 2.8 5.77Z" transform="translate(-121.06 -110.79)"></path><path fill="#448cad" d="M2226.27 1412.52c-114.29 0-210.68 76.66-240.56 181.36h481.13c-29.89-104.7-126.28-181.36-240.57-181.36ZM2882.56 1412.52c-114.29 0-210.68 76.66-240.56 181.36h481.13c-29.89-104.7-126.27-181.36-240.57-181.36Z" transform="translate(-121.06 -110.79)"></path><path fill="#448cad" d="M2569.89 1334.83c-163.26 0-300.94 109.49-343.62 259h687.24c-42.69-149.5-180.37-259-343.62-259ZM784.85 1457a188.93 188.93 0 0 0-181.61 136.92h363.22A188.93 188.93 0 0 0 784.85 1457ZM1280.32 1457a188.93 188.93 0 0 0-181.61 136.92h363.23A188.93 188.93 0 0 0 1280.32 1457Z" transform="translate(-121.06 -110.79)"></path><path fill="#448cad" d="M1044.26 1398.31c-123.25 0-227.19 82.66-259.42 195.57h518.83c-32.21-112.88-136.15-195.57-259.41-195.57Z" transform="translate(-121.06 -110.79)"></path><path fill="#30637a" d="M2638.1 1692.72H961.9a56.09 56.09 0 0 1 0-112.18h1676.2a56.09 56.09 0 0 1 0 112.18Z" transform="translate(-121.06 -110.79)"></path><path fill="#d0f1f2" d="M314.59 434.93c-91.95 0-169.49 61.67-193.53 145.9h387.05c-24.04-84.23-101.58-145.9-193.52-145.9ZM842.55 434.93c-91.95 0-169.49 61.67-193.53 145.9h387.05C1012 496.6 934.5 434.93 842.55 434.93Z" transform="translate(-121.06 -110.79)"></path><path fill="#d0f1f2" d="M591 372.43c-131.34 0-242.09 88.08-276.43 208.4h552.88c-34.34-120.31-145.1-208.4-276.45-208.4Z" transform="translate(-121.06 -110.79)"></path><path fill="#fff" d="M345.64 559.89A124.36 124.36 0 0 0 226.09 650h239.09a124.36 124.36 0 0 0-119.54-90.11ZM671.77 559.89A124.36 124.36 0 0 0 552.23 650h239.09a124.36 124.36 0 0 0-119.55-90.11Z" transform="translate(-121.06 -110.79)"></path><path fill="#fff" d="M516.39 521.28A177.64 177.64 0 0 0 345.64 650h341.51a177.64 177.64 0 0 0-170.76-128.72ZM1084.86 169.17a89.53 89.53 0 0 0-86.06 64.88h172.12a89.53 89.53 0 0 0-86.06-64.88ZM1319.65 169.17a89.53 89.53 0 0 0-86.06 64.88h172.12a89.53 89.53 0 0 0-86.06-64.88Z" transform="translate(-121.06 -110.79)"></path><path fill="#fff" d="M1207.79 141.38a127.88 127.88 0 0 0-122.93 92.68h245.86a127.88 127.88 0 0 0-122.93-92.68Z" transform="translate(-121.06 -110.79)"></path><path fill="#d0f1f2" d="M2522 168a184.43 184.43 0 0 0-177.29 133.66h354.59A184.43 184.43 0 0 0 2522 168ZM3005.69 168a184.43 184.43 0 0 0-177.29 133.66H3183A184.43 184.43 0 0 0 3005.69 168Z" transform="translate(-121.06 -110.79)"></path><path fill="#d0f1f2" d="M2775.25 110.79c-120.32 0-221.79 80.7-253.24 190.92h506.49c-31.5-110.22-132.93-190.92-253.25-190.92Z" transform="translate(-121.06 -110.79)"></path><path fill="#38748f" d="M2937.84 283.21a89.32 89.32 0 0 0-85.84 64.73h171.7a89.32 89.32 0 0 0-85.86-64.73ZM3172.08 283.21a89.32 89.32 0 0 0-85.86 64.73h171.72a89.32 89.32 0 0 0-85.86-64.73Z" transform="translate(-121.06 -110.79)"></path><path fill="#38748f" d="M3060.48 255.48a127.58 127.58 0 0 0-122.64 92.46h245.29a127.58 127.58 0 0 0-122.65-92.46Z" transform="translate(-121.06 -110.79)"></path><path fill="#fff" d="M606.41 1143.63a29.93 29.93 0 0 0 29.93-29.93 29.93 29.93 0 0 0 29.93 29.93 29.93 29.93 0 0 0-29.93 29.93 29.93 29.93 0 0 0-29.93-29.93ZM1265.17 633.71a29.93 29.93 0 0 0 29.93-29.93 29.93 29.93 0 0 0 29.9 29.93 29.93 29.93 0 0 0-29.93 29.93 29.93 29.93 0 0 0-29.9-29.93ZM2782.1 1207.6a29.93 29.93 0 0 0 29.93-29.93 29.93 29.93 0 0 0 29.97 29.93 29.93 29.93 0 0 0-29.93 29.93 29.93 29.93 0 0 0-29.97-29.93ZM1520.63 1211.05a16.7 16.7 0 0 0 16.7-16.7 16.7 16.7 0 0 0 16.7 16.7 16.7 16.7 0 0 0-16.7 16.7 16.7 16.7 0 0 0-16.7-16.7ZM1191.09 715.48a16.7 16.7 0 0 0 16.7-16.7 16.7 16.7 0 0 0 16.7 16.7 16.7 16.7 0 0 0-16.7 16.7 16.7 16.7 0 0 0-16.7-16.7ZM695.24 1219.35a16.7 16.7 0 0 0 16.7-16.7 16.7 16.7 0 0 0 16.7 16.7 16.7 16.7 0 0 0-16.7 16.7 16.7 16.7 0 0 0-16.7-16.7Z" transform="translate(-121.06 -110.79)"></path><path fill="#d0f1f2" d="M1550.46 1151.72h294.81v45.93a12 12 0 0 1-12 12h-270.78a12 12 0 0 1-12-12v-45.93h-.03Z"></path><path fill="#d0f1f2" d="M1625.87 1186.67h144v45.93a12 12 0 0 1-12 12H1637.9a12 12 0 0 1-12-12v-45.93h-.03Z"></path><path fill="#d0f1f2" d="M1683.89 1186.67h27.96v240.14h-27.96z"></path><path fill="none" stroke="#d0f1f2" stroke-miterlimit="10" stroke-width="19.7" d="M1909.58 1585.15v-20.87a26.68 26.68 0 0 0-26.68-26.68h-129a26.68 26.68 0 0 0-26.68 26.68v20.87" transform="translate(-121.06 -110.79)"></path><circle cx="1788.52" cy="1474.36" r="22.85" fill="#ff8c87"></circle><circle cx="1607.21" cy="1474.36" r="22.85" fill="#ff8c87"></circle><path fill="#fe9391" d="M1663.89 1234.06H1974l-19.8-385.87a32.49 32.49 0 0 0-32.45-30.83h-205.61a32.49 32.49 0 0 0-32.45 30.83Z" transform="translate(-121.06 -110.79)"></path><path fill="#fe8482" d="M1544.29 1091.48h307.15a17.63 17.63 0 0 1 17.63 17.63v55.29a6.05 6.05 0 0 1-6.05 6.05h-330.3a6.05 6.05 0 0 1-6.05-6.05v-55.29a17.63 17.63 0 0 1 17.62-17.63Z"></path><path fill="#d0f1f2" d="M2102.72 1497.21h16.45l17.76-581.94h-51.98l17.77 581.94z"></path><path fill="#fe8482" d="m2099.37 1386.94 3.36 110.25h16.44l3.36-110.25h-23.16z"></path><path fill="#d0f1f2" d="M1238.72 1497.21h16.45l17.76-581.94h-51.98l17.77 581.94z"></path><path fill="#fe8482" d="m1235.37 1386.94 3.36 110.25h16.44l3.36-110.25h-23.16z"></path><path fill="#d0f1f2" d="M1317.2 1050.88h966.78v71.05H1317.2z" transform="rotate(180 1740.055 1031.01)"></path><path fill="#fe5e5a" d="M1253.37 1008.15h1093.26v48.94a13 13 0 0 1-13 13H1266.34a13 13 0 0 1-13-13v-48.94h.03Z" transform="rotate(180 1739.47 983.705)"></path><path fill="#fff" d="M1604.15 878.19h-361.21v-54.7h361.21a27.35 27.35 0 1 1 0 54.7Z" transform="translate(-121.06 -110.79)"></path><path fill="#8fcccf" d="M1605.85 883.11h-376.22a5.23 5.23 0 1 1 0-10.47h376.22a21.64 21.64 0 1 0 0-43.28h-376.22a5.23 5.23 0 1 1 0-10.47h376.22a32.11 32.11 0 1 1 0 64.21Z" transform="translate(-121.06 -110.79)"></path><path fill="#fff" d="M1302.81 951.76h306.63v54.1h-306.63a27 27 0 0 1 0-54.1Z" transform="translate(-121.06 -110.79)"></path><path fill="#30637a" d="M1622 1011.37h-320.53a32.23 32.23 0 0 1 0-64.47H1622a5.23 5.23 0 0 1 0 10.47h-320.53a21.76 21.76 0 0 0 0 43.53H1622a5.23 5.23 0 0 1 0 10.47Z" transform="translate(-121.06 -110.79)"></path><path fill="#fff" d="M1328.67 888.66h306.63v54.09h-306.63a27 27 0 1 1 0-54.09Z" transform="translate(-121.06 -110.79)"></path><path fill="#fe5e5a" d="M1647.87 947.94h-320.54a32.23 32.23 0 0 1 0-64.47h320.54a5.23 5.23 0 1 1 0 10.47h-320.54a21.76 21.76 0 0 0 0 43.53h320.54a5.23 5.23 0 1 1 0 10.47Z" transform="translate(-121.06 -110.79)"></path><path fill="#3c3f57" d="M2079.76 720.63c14.88-15.95-31.45-43.92-39.85-56.28-313.91 303.48 110.38 594.37 250.35 157.15 21.41-66.88 18.31-46.62-31.27-71-3.75-6.83-3.34-6.88 0 0-49.58-24.38-58.34-2.49-66.77 41.43-55.12 287.17-332.22 164.25-112.46-71.3Z" transform="translate(-121.06 -110.79)"></path><path fill="#292b3b" d="M1970.53 1599.28h246c9-65.83 22.3-137.8 39.9-216.4-71.2-18.29-135.91-65.87-208-80.61-37.12 99.83-69.96 203.59-77.9 297.01Z" transform="translate(-121.06 -110.79)"></path><path fill="#fff" d="M2287.84 1413.28c-50-17.55-102.15-22.28-155.21-22.53-.36 0-.14-3.19-.79-3-71 15.65-97.53-82.43-85.29-115.19 49.66-133 96.12-316.16 127.59-433C2195 762 2210 736 2244.63 697.82c4.53-3.76 11.63-4.84 15.54-6.79 72.64-36.23 160.14 9.26 162.15 95 .67 28.66-.84 53.57-5.26 90.11-20.99 173.47-62.93 372.5-129.22 537.14Z" transform="translate(-121.06 -110.79)"></path><path fill="#fe5e5a" d="M2284.07 733.95s-68.82 223.85-117.79 302.61l3.91 57.3 52.19-18.5S2287.79 861 2298.92 738Z" transform="translate(-121.06 -110.79)"></path><path fill="#d0f1f2" d="m2148.67 603.23 59.99 84.6 26.52-111.47-41.88-12.27-44.63 39.14z"></path><path fill="#d0f1f2" d="m2182.89 612.95-62.87 75.45-10.05-92.52 33.67-23.17 39.25 40.24z"></path><path fill="#3c3f57" d="M2444.43 859.27c4.57-40.27 10.84-42 6.57-69.27-10-64.72-42-93-103.43-105.66 2.53 125.85-273.28 834.49-271.5 834.63 85.6 6.86 134.29 21.73 167.82 36.45 97.68-216.96 181.76-530.61 200.54-696.15Z" transform="translate(-121.06 -110.79)"></path><path fill="#fff" d="M2412 1228.62s-126.9-41.77-155.07-23.36 88.11 71.82 166.9 54.06Z" transform="translate(-121.06 -110.79)"></path><path fill="#3c3f57" d="M2391.94 1210.11c3.93 20.07 8.09 41.24 13.45 61.71 396-132.55 354.6-378.1 13.57-559.79-70.33-37.47-96.68 64.67-42.73 90 313.21 147.06 309.15 261.91 15.71 408.08ZM2238 698s-51 43-84 193c-34.9 158.64-188 560-188 560l46 6s167.82-484.1 187-574c32-150 112-242 39-185Z" transform="translate(-121.06 -110.79)"></path><path fill="#6a6e91" d="M2248.07 1045.66C2247.85 1046.29 2352 891 2352 891l-16-35 67-86s-15.64-65-31.82-79.52-30.39-15.6-30.39-15.6 13.36 75.45-92.72 370.78ZM2259 709l-110.22 341.88 33-216.92L2206 818l4.24-83s19.76-46 53.76-60-5 34-5 34Z" transform="translate(-121.06 -110.79)"></path><path fill="#fff" d="M2356.41 585c-46.48 62.39-127.61 80.58-165.73 52.18s-18.8-92.65 27.67-155 101-71.11 139.16-42.71 45.37 83.13-1.1 145.53Z" transform="translate(-121.06 -110.79)"></path><path fill="#fff" d="m2351.76 571.89-81-11c-1.51 11.08-14 116.71-11.34 156.8 2.52 12.41 22.58 18.81 44.78 14.29 20-4.06 34.75-15.56 35.72-26.86h.1c-1.53-24.01 6.51-94.49 11.74-133.23Z" transform="translate(-121.06 -110.79)"></path><path fill="#1a1c2e" d="M2193.53 558.94c8.17 1 17 2.34 22.68 8.34 2 2.14 3.47 4.76 5.63 6.74 1.5 1.37 3.29 2.4 4.84 3.71 3.42 2.91 5.48 7.07 7.45 11.11 2.78 5.72 8.94 21.52-3 20.81a13.19 13.19 0 0 1-7.41-3.24c-7-5.78-9.64-15.61-16.44-21.66a44 44 0 0 0-3.91-3c-4.32-3.05-8.65-6.11-13.25-8.72a22.84 22.84 0 0 1-5.82-4c-1.6-1.75-2.55-4.33-1.69-6.54 1.49-3.88 6.81-4.05 10.92-3.55ZM2344.1 601.14s-22.1-8.49-5.56-29.19 25.73-45.92 18.27-47.55-26.14 4.06-27.45-14.75-12.6-7.13-25.77-16.56-69.31-31.86-67.31-65.6 14.78-48.37 29.86-39.6 11.32-5.53 28 1.07 16 15.29 39.56 24.7 84 45.11 67.95 78.91c0 0 24.87 21 7 47.63s-53.91 81.5-64.55 60.94Z" transform="translate(-121.06 -110.79)"></path><path fill="#fff" d="M2369.83 622.3c-10.82 14.52-39.07 22.35-49.59 14.52s-4.38-21.57 6.44-36.09 29.46-21.76 40-13.92 13.97 20.97 3.15 35.49Z" transform="translate(-121.06 -110.79)"></path><path fill="#1a1c2e" d="M2318.57 612.52s10.42 0-.58 11.66-73.5 85.17-140.51 37c-41.35-29.75-16.37-71.43-12.75-80.53s9.37-12.65 10.27 10.43 18 45 41.15 48.8 67.72-7.55 81.2-14a104.33 104.33 0 0 0 21.22-13.36Z" transform="translate(-121.06 -110.79)"></path><path fill="#fff" d="M2081.22 707.38c38.24-15.32 92.51-40.18 99.81-60.4 9.34-25.9-72.68-12.3-131.42 27.25 10.95 9.67 26.78 22.2 31.61 33.15Z" transform="translate(-121.06 -110.79)"></path><path fill="#a09eb8" d="M2044.22 1567.13a112.82 112.82 0 0 0-108.45 81.76h216.9a112.82 112.82 0 0 0-108.45-81.76ZM2340.08 1567.13a112.82 112.82 0 0 0-108.45 81.76h216.9a112.82 112.82 0 0 0-108.45-81.76Z" transform="translate(-121.06 -110.79)"></path><path fill="#a09eb8" d="M2199.13 1532.1a161.15 161.15 0 0 0-154.91 116.78H2354a161.15 161.15 0 0 0-154.87-116.78Z" transform="translate(-121.06 -110.79)"></path><path fill="#ffbcba" d="M2054.77 1631.18a50.19 50.19 0 0 0-48.25 36.37H2103a50.19 50.19 0 0 0-48.23-36.37ZM2186.4 1631.18a50.19 50.19 0 0 0-48.25 36.37h96.5a50.19 50.19 0 0 0-48.25-36.37Z" transform="translate(-121.06 -110.79)"></path><path fill="#ffbcba" d="M2123.69 1615.6a71.69 71.69 0 0 0-68.92 52h137.83a71.69 71.69 0 0 0-68.91-52Z" transform="translate(-121.06 -110.79)"></path><circle cx="1978.63" cy="239.81" r="65.6" fill="#fff"></circle><circle cx="2060.94" cy="324.21" r="23" fill="#fff"></circle><path fill="#fff" d="m1747.28 871.71.12 17.69a23.3 23.3 0 0 0-13.82-5.8c-7.24-.4-13.58 1.78-18.33 6.3-5.83 5.55-8.87 14.22-8.79 25.06.14 20.66 17.76 44.09 33.06 44a17.69 17.69 0 0 0 8.35-2.09l.18 26.62a11 11 0 0 0 9.75 10.85l.08 11.89a3 3 0 0 0 3 3l68.09-.47a3 3 0 0 0 3-3l-.08-11.89a11 11 0 0 0 9.6-11l-.78-111.76Zm-7.82 79.45c-4.74 0-10.93-4.39-16.17-11.55-5.62-7.68-9-16.92-9.06-24.71-.06-8.64 2.15-15.34 6.38-19.37a15.68 15.68 0 0 1 11.11-4.21h1.43c5.63.31 10.72 4.17 14.34 10.06l.31 45.11a10.11 10.11 0 0 1-8.34 4.67Z" transform="translate(-121.06 -110.79)"></path><path fill="none" stroke="#2f7d80" stroke-miterlimit="10" stroke-width="7.88" d="M1478.51 711.44s4.88-135.9 67.89-243.09" transform="translate(-121.06 -110.79)"></path><circle cx="1550.68" cy="463.73" r="14.62" fill="#2f7d80" transform="rotate(-88.3 1433.146 470.657)"></circle><circle cx="1494.61" cy="455.03" r="14.62" fill="#2f7d80" transform="rotate(-88.3 1377.075 461.966)"></circle><circle cx="1569.18" cy="561.34" r="14.62" fill="#2f7d80" transform="rotate(-88.3 1451.656 568.271)"></circle><path fill="none" stroke="#2f7d80" stroke-miterlimit="10" stroke-width="7.88" d="M1514.94 535.36s-2.11-40.53-16.84-73.19M1500.26 581s23.56-15.27 61.6-19.85M1458.31 696.61s-6-135.86-69.8-242.55" transform="translate(-121.06 -110.79)"></path><circle cx="1384.19" cy="449.48" r="14.62" fill="#2f7d80" transform="rotate(-2.15 -1629.13 3619.628)"></circle><circle cx="1440.19" cy="440.34" r="14.62" fill="#2f7d80" transform="rotate(-2.15 -1572.984 3610.553)"></circle><circle cx="1366.46" cy="547.23" r="14.62" fill="#2f7d80" transform="rotate(-2.15 -1646.692 3717.39)"></circle><path fill="none" stroke="#2f7d80" stroke-miterlimit="10" stroke-width="7.88" d="M1420.5 520.82s1.79-40.54 16.26-73.32M1435.54 566.32s-23.68-15.09-61.76-19.36" transform="translate(-121.06 -110.79)"></path><path fill="#fa7c78" d="M1374.02 705.69h-55.79l-24.7-135.56h105.19l-24.7 135.56z"></path><g opacity=".6"><path fill="none" stroke="#fff" stroke-linecap="round" stroke-linejoin="round" stroke-width="7.37" d="M1808.55 789.81c0-16.58 7.37-16.58 7.37-33.16s-7.37-16.58-7.37-33.16 7.37-16.58 7.37-33.16-7.37-16.58-7.37-33.16M1786.87 856.12c0-16.58 7.37-16.58 7.37-33.16s-7.37-16.58-7.37-33.16 7.37-16.58 7.37-33.16-7.37-16.58-7.37-33.16" transform="translate(-121.06 -110.79)"></path></g><circle cx="1724.7" cy="265.78" r="235.19" fill="#fff"></circle><path fill="#70738c" d="M1866.68 326.88c0-11.58-11.21-17.56-25-17.56-16.06 0-31 9.71-38.85 25.41l-66.5-33.25c19.05-35.87 56.79-60.52 116.56-60.52 58.65 0 102.37 24.66 102.37 71.36 0 57.16-59.78 67.25-59.78 96h-77c.01-45.2 48.2-58.65 48.2-81.44Zm-59 140.47c0-25 20.17-44.08 49.32-44.08s49.32 19.05 49.32 44.08c0 24.66-20.17 44.83-49.32 44.83s-49.35-20.18-49.35-44.83Z" transform="translate(-121.06 -110.79)"></path></svg>